# xmcd
#
# Track frame offsets: 
#        150
#        15834
#        31320
#        62925
#
# Disc length: 1081 seconds
#
# Revision: 0
# Processed by: cddbd v1.5.2PL0 Copyright (c) Steve Scherf et al.
# Submitted via: ExactAudioCopy v0.99pb5
#
DISCID=26043704
DTITLE=Sido - Beweg Dein Arsch
DYEAR=2009
DGENRE=Electronic
TTITLE0=Beweg Dein Arsch (Radio Edit)
TTITLE1=Beweg Dein Arsch (Instrumental)
TTITLE2=Beweg Dein Arsch (Atzen Musik Remix)
TTITLE3=Beweg Dein Arsch (Video)
EXTD=
EXTT0=
EXTT1=
EXTT2=
EXTT3=
PLAYORDER=
